<?xml version="1.0" encoding="UTF-8"?>
<!DOCTYPE svg PUBLIC "-//W3C//DTD SVG 1.1//EN" "http://www.w3.org/Graphics/SVG/1.1/DTD/svg11.dtd">
<svg xmlns="http://www.w3.org/2000/svg" version="1.1" width="41px" height="64px" style="shape-rendering:geometricPrecision; text-rendering:geometricPrecision; image-rendering:optimizeQuality; fill-rule:evenodd; clip-rule:evenodd" xmlns:xlink="http://www.w3.org/1999/xlink">
<g><path style="opacity:0.163" fill="#f7ced4" d="M 15.5,0.5 C 15.5,0.166667 15.5,-0.166667 15.5,-0.5C 16.5,-0.5 17.5,-0.5 18.5,-0.5C 18.825,7.01905 18.4916,14.3524 17.5,21.5C 18.1279,14.0869 17.4612,7.08691 15.5,0.5 Z"/></g>
<g><path style="opacity:1" fill="#dc2938" d="M 15.5,0.5 C 17.4612,7.08691 18.1279,14.0869 17.5,21.5C 12.4984,25.0031 7.16504,28.0031 1.5,30.5C 0.833333,30.5 0.166667,30.5 -0.5,30.5C -0.5,23.1667 -0.5,15.8333 -0.5,8.5C 1.5,7.83333 3.5,7.16667 5.5,6.5C 7.02694,6.57298 8.02694,5.90632 8.5,4.5C 8.84171,3.66175 9.50838,3.32842 10.5,3.5C 12.0269,3.57298 13.0269,2.90632 13.5,1.5C 13.8417,0.661754 14.5084,0.32842 15.5,0.5 Z"/></g>
<g><path style="opacity:0.659" fill="#f3a2ab" d="M 13.5,1.5 C 13.0269,2.90632 12.0269,3.57298 10.5,3.5C 10.9731,2.09368 11.9731,1.42702 13.5,1.5 Z"/></g>
<g><path style="opacity:0.796" fill="#f3969e" d="M 8.5,4.5 C 8.02694,5.90632 7.02694,6.57298 5.5,6.5C 5.97306,5.09368 6.97306,4.42702 8.5,4.5 Z"/></g>
<g><path style="opacity:1" fill="#e47839" d="M 40.5,12.5 C 40.5,26.1667 40.5,39.8333 40.5,53.5C 35.1667,56.5 29.8333,59.5 24.5,62.5C 22.5467,56.9262 21.88,50.9262 22.5,44.5C 22.2027,37.0796 22.536,29.7463 23.5,22.5C 25.0269,22.573 26.0269,21.9063 26.5,20.5C 30.833,17.331 35.4997,14.6643 40.5,12.5 Z"/></g>
<g><path style="opacity:0.698" fill="#f4be9f" d="M 26.5,20.5 C 26.0269,21.9063 25.0269,22.573 23.5,22.5C 23.9731,21.0937 24.9731,20.427 26.5,20.5 Z"/></g>
<g><path style="opacity:0.384" fill="#f5ccb3" d="M 23.5,22.5 C 22.536,29.7463 22.2027,37.0796 22.5,44.5C 20.9731,44.573 19.9731,43.9063 19.5,42.5C 20.8333,35.8333 22.1667,29.1667 23.5,22.5 Z"/></g>
<g><path style="opacity:0.016" fill="#fbe4dd" d="M -0.5,31.5 C -0.5,31.1667 -0.5,30.8333 -0.5,30.5C 0.166667,30.5 0.833333,30.5 1.5,30.5C 1.83333,31.1667 2.16667,31.8333 2.5,32.5C 1.39105,32.4431 0.391047,32.1098 -0.5,31.5 Z"/></g>
<g><path style="opacity:0.999" fill="#eead46" d="M -0.5,31.5 C 0.391047,32.1098 1.39105,32.4431 2.5,32.5C 8.36677,35.5961 14.0334,38.9294 19.5,42.5C 19.9731,43.9063 20.9731,44.573 22.5,44.5C 21.88,50.9262 22.5467,56.9262 24.5,62.5C 24.5,62.8333 24.5,63.1667 24.5,63.5C 23.1667,63.5 21.8333,63.5 20.5,63.5C 19.8333,62.8333 19.1667,62.1667 18.5,61.5C 18.0269,60.0937 17.0269,59.427 15.5,59.5C 13.847,59.3404 12.5137,58.6737 11.5,57.5C 11.0269,56.0937 10.0269,55.427 8.5,55.5C 6.84702,55.3404 5.51369,54.6737 4.5,53.5C 4.02694,52.0937 3.02694,51.427 1.5,51.5C 0.833333,51.5 0.166667,51.5 -0.5,51.5C -0.5,44.8333 -0.5,38.1667 -0.5,31.5 Z"/></g>
<g><path style="opacity:0.314" fill="#fae4c1" d="M 1.5,51.5 C 3.02694,51.427 4.02694,52.0937 4.5,53.5C 2.97306,53.573 1.97306,52.9063 1.5,51.5 Z"/></g>
<g><path style="opacity:0.294" fill="#fbe2be" d="M 8.5,55.5 C 10.0269,55.427 11.0269,56.0937 11.5,57.5C 9.97306,57.573 8.97306,56.9063 8.5,55.5 Z"/></g>
<g><path style="opacity:0.345" fill="#f9e0b9" d="M 15.5,59.5 C 17.0269,59.427 18.0269,60.0937 18.5,61.5C 16.9731,61.573 15.9731,60.9063 15.5,59.5 Z"/></g>
</svg>
